<?xml version="1.0" encoding="UTF-8" standalone="no"?>
<!-- Created with Inkscape (http://www.inkscape.org/) -->

<svg
   version="1.1"
   id="svg2"
   xml:space="preserve"
   width="4000"
   height="2666.6667"
   viewBox="0 0 4000 2666.6667"
   sodipodi:docname="8325.eps"
   xmlns:inkscape="http://www.inkscape.org/namespaces/inkscape"
   xmlns:sodipodi="http://sodipodi.sourceforge.net/DTD/sodipodi-0.dtd"
   xmlns="http://www.w3.org/2000/svg"
   xmlns:svg="http://www.w3.org/2000/svg"><defs
     id="defs6" /><sodipodi:namedview
     id="namedview4"
     pagecolor="#ffffff"
     bordercolor="#666666"
     borderopacity="1.0"
     inkscape:pageshadow="2"
     inkscape:pageopacity="0.0"
     inkscape:pagecheckerboard="0" /><g
     id="g8"
     inkscape:groupmode="layer"
     inkscape:label="ink_ext_XXXXXX"
     transform="matrix(1.3333333,0,0,-1.3333333,0,2666.6667)"><g
       id="g10"
       transform="scale(0.1)"><path
         d="M 30000,0 H 0 V 20000 H 30000 V 0"
         style="fill:#ffffff;fill-opacity:1;fill-rule:nonzero;stroke:none"
         id="path12" /><path
         d="M 24174.1,12359.7 C 20357.8,11563.4 22595.4,20370 17396.5,16631.9 15329,15145.3 12351.9,16944.2 9500.96,15961 6882.69,15057.9 7527.67,12094.9 7781.01,11125.5 8292.74,9167.2 5744.06,9948.2 4266.75,9106.8 1949.43,7787 3982.18,2466.1 6171.37,2444 8360.56,2421.8 24444,2488.1 24444,2488.1 c 0,0 955.4,747.4 1462.7,2287.9 1039.9,3158 1627.9,8284.9 -1732.6,7583.7"
         style="fill:#ebf2f9;fill-opacity:1;fill-rule:nonzero;stroke:none"
         id="path14" /><path
         d="M 24184.9,4518.9 V 2481.4 h -988.8 v 2037.5 h 988.8"
         style="fill:#dceaf9;fill-opacity:1;fill-rule:nonzero;stroke:none"
         id="path16" /><path
         d="m 9617.48,10232.4 v 890.5 H 9887.8 V 12654 h 1449.4 v -1531.1 h 1355 v 2098.7 l 1495.3,566 v -1789.4 h 341 v 2382.9 l 1495.3,-495.5 v -3579.2 h 1891.1 V 8192.3 h 706.6 v -532.6 h 1623.1 v 917.1 h 931.8 v 2492.1 h 1151.1 V 6468.6 h 1151.1 v -4003 h -1151.1 -986.7 -164.4 -931.8 -526.8 -843.6 -252.7 -706.6 -663.7 -1227.4 -375.9 -747.8 -371.6 -341 -782.7 -532.8 -179.8 -1355 H 9912 9887.8 9617.48 8462.62 v 7766.8 h 1154.86"
         style="fill:#d5e7f7;fill-opacity:1;fill-rule:nonzero;stroke:none"
         id="path18" /><path
         d="m 14791.7,13335 h 1008.7 v 369.4 H 14791.7 V 13335"
         style="fill:#c4d9ed;fill-opacity:1;fill-rule:nonzero;stroke:none"
         id="path20" /><path
         d="m 14791.7,12641 h 1008.7 v 369.4 H 14791.7 V 12641"
         style="fill:#c4d9ed;fill-opacity:1;fill-rule:nonzero;stroke:none"
         id="path22" /><path
         d="m 14791.7,12016.7 h 1008.7 v 369.4 h -1008.7 v -369.4"
         style="fill:#c4d9ed;fill-opacity:1;fill-rule:nonzero;stroke:none"
         id="path24" /><path
         d="M 22327.5,9390 V 8819.8 H 21155.1 V 9390 h 1172.4"
         style="fill:#c4d9ed;fill-opacity:1;fill-rule:nonzero;stroke:none"
         id="path26" /><path
         d="m 22327.5,7069.6 h -1161.2 v 570.1 h 1161.2 v -570.1"
         style="fill:#c4d9ed;fill-opacity:1;fill-rule:nonzero;stroke:none"
         id="path28" /><path
         d="m 22327.5,6208.2 h -1161.2 v 570.2 h 1161.2 v -570.2"
         style="fill:#c4d9ed;fill-opacity:1;fill-rule:nonzero;stroke:none"
         id="path30" /><path
         d="m 21185.2,5307.1 h 1161.2 v 570.2 h -1161.2 v -570.2"
         style="fill:#c4d9ed;fill-opacity:1;fill-rule:nonzero;stroke:none"
         id="path32" /><path
         d="m 22346.4,4424.6 h -1161.2 v 570.2 h 1161.2 v -570.2"
         style="fill:#c4d9ed;fill-opacity:1;fill-rule:nonzero;stroke:none"
         id="path34" /><path
         d="m 21185.2,3523.4 h 1161.2 v 570.2 h -1161.2 v -570.2"
         style="fill:#c4d9ed;fill-opacity:1;fill-rule:nonzero;stroke:none"
         id="path36" /><path
         d="m 12929.7,12386.1 h 1060.9 v -369.4 h -1060.9 v 369.4"
         style="fill:#c4d9ed;fill-opacity:1;fill-rule:nonzero;stroke:none"
         id="path38" /><path
         d="m 12929.7,13004.8 h 1060.9 v -369.4 h -1060.9 v 369.4"
         style="fill:#c4d9ed;fill-opacity:1;fill-rule:nonzero;stroke:none"
         id="path40" /><path
         d="m 15826.1,11780.8 v -369.4 h -2896.4 v 369.4 h 2896.4"
         style="fill:#c4d9ed;fill-opacity:1;fill-rule:nonzero;stroke:none"
         id="path42" /><path
         d="m 15826.1,10855.9 h -2896.4 v 369.4 h 2896.4 v -369.4"
         style="fill:#c4d9ed;fill-opacity:1;fill-rule:nonzero;stroke:none"
         id="path44" /><path
         d="m 15826.1,10318.4 h -2896.4 v 355.2 h 2896.4 v -355.2"
         style="fill:#c4d9ed;fill-opacity:1;fill-rule:nonzero;stroke:none"
         id="path46" /><path
         d="m 22327.5,7930.9 h -1161.2 v 570.2 h 1161.2 v -570.2"
         style="fill:#c4d9ed;fill-opacity:1;fill-rule:nonzero;stroke:none"
         id="path48" /><path
         d="m 17625.4,9602.6 h -253.5 v 357.3 h 253.5 v -357.3"
         style="fill:#c4d9ed;fill-opacity:1;fill-rule:nonzero;stroke:none"
         id="path50" /><path
         d="m 17151.3,9602.6 h -253.5 v 357.3 h 253.5 v -357.3"
         style="fill:#c4d9ed;fill-opacity:1;fill-rule:nonzero;stroke:none"
         id="path52" /><path
         d="m 16687.9,9602.6 h -253.5 v 357.3 h 253.5 v -357.3"
         style="fill:#c4d9ed;fill-opacity:1;fill-rule:nonzero;stroke:none"
         id="path54" /><path
         d="M 16248.5,9602.6 H 15995 v 357.3 h 253.5 v -357.3"
         style="fill:#c4d9ed;fill-opacity:1;fill-rule:nonzero;stroke:none"
         id="path56" /><path
         d="m 15800.7,9602.6 h -253.5 v 357.3 h 253.5 v -357.3"
         style="fill:#c4d9ed;fill-opacity:1;fill-rule:nonzero;stroke:none"
         id="path58" /><path
         d="m 15347.8,9602.6 h -253.5 v 357.3 h 253.5 v -357.3"
         style="fill:#c4d9ed;fill-opacity:1;fill-rule:nonzero;stroke:none"
         id="path60" /><path
         d="m 14873.7,9602.6 h -253.5 v 357.3 h 253.5 v -357.3"
         style="fill:#c4d9ed;fill-opacity:1;fill-rule:nonzero;stroke:none"
         id="path62" /><path
         d="m 14410.3,9602.6 h -253.5 v 357.3 h 253.5 v -357.3"
         style="fill:#c4d9ed;fill-opacity:1;fill-rule:nonzero;stroke:none"
         id="path64" /><path
         d="m 13970.9,9602.6 h -253.5 v 357.3 h 253.5 v -357.3"
         style="fill:#c4d9ed;fill-opacity:1;fill-rule:nonzero;stroke:none"
         id="path66" /><path
         d="m 13523.1,9602.6 h -253.5 v 357.3 h 253.5 v -357.3"
         style="fill:#c4d9ed;fill-opacity:1;fill-rule:nonzero;stroke:none"
         id="path68" /><path
         d="m 13056.4,9602.6 h -253.5 v 357.3 h 253.5 v -357.3"
         style="fill:#c4d9ed;fill-opacity:1;fill-rule:nonzero;stroke:none"
         id="path70" /><path
         d="m 12582.4,9602.6 h -253.5 v 357.3 h 253.5 v -357.3"
         style="fill:#c4d9ed;fill-opacity:1;fill-rule:nonzero;stroke:none"
         id="path72" /><path
         d="m 12119,9602.6 h -253.5 v 357.3 h 253.5 v -357.3"
         style="fill:#c4d9ed;fill-opacity:1;fill-rule:nonzero;stroke:none"
         id="path74" /><path
         d="m 11679.6,9602.6 h -253.5 v 357.3 h 253.5 v -357.3"
         style="fill:#c4d9ed;fill-opacity:1;fill-rule:nonzero;stroke:none"
         id="path76" /><path
         d="m 11231.8,9602.6 h -253.5 v 357.3 h 253.5 v -357.3"
         style="fill:#c4d9ed;fill-opacity:1;fill-rule:nonzero;stroke:none"
         id="path78" /><path
         d="m 10778.8,9602.6 h -253.5 v 357.3 h 253.5 v -357.3"
         style="fill:#c4d9ed;fill-opacity:1;fill-rule:nonzero;stroke:none"
         id="path80" /><path
         d="m 10304.8,9602.6 h -253.5 v 357.3 h 253.5 v -357.3"
         style="fill:#c4d9ed;fill-opacity:1;fill-rule:nonzero;stroke:none"
         id="path82" /><path
         d="M 9841.39,9602.6 H 9587.9 v 357.3 h 253.49 v -357.3"
         style="fill:#c4d9ed;fill-opacity:1;fill-rule:nonzero;stroke:none"
         id="path84" /><path
         d="m 9402,9602.6 h -253.49 v 357.3 H 9402 v -357.3"
         style="fill:#c4d9ed;fill-opacity:1;fill-rule:nonzero;stroke:none"
         id="path86" /><path
         d="m 8954.17,9959.9 v -357.3 h -253.48 v 357.3 h 253.48"
         style="fill:#c4d9ed;fill-opacity:1;fill-rule:nonzero;stroke:none"
         id="path88" /><path
         d="m 17625.4,8972.1 h -253.5 v 357.3 h 253.5 v -357.3"
         style="fill:#c4d9ed;fill-opacity:1;fill-rule:nonzero;stroke:none"
         id="path90" /><path
         d="m 17151.3,8972.1 h -253.5 v 357.3 h 253.5 v -357.3"
         style="fill:#c4d9ed;fill-opacity:1;fill-rule:nonzero;stroke:none"
         id="path92" /><path
         d="m 16687.9,8972.1 h -253.5 v 357.3 h 253.5 v -357.3"
         style="fill:#c4d9ed;fill-opacity:1;fill-rule:nonzero;stroke:none"
         id="path94" /><path
         d="M 16248.5,8972.1 H 15995 v 357.3 h 253.5 v -357.3"
         style="fill:#c4d9ed;fill-opacity:1;fill-rule:nonzero;stroke:none"
         id="path96" /><path
         d="m 15800.7,8972.1 h -253.5 v 357.3 h 253.5 v -357.3"
         style="fill:#c4d9ed;fill-opacity:1;fill-rule:nonzero;stroke:none"
         id="path98" /><path
         d="m 15347.8,8972.1 h -253.5 v 357.3 h 253.5 v -357.3"
         style="fill:#c4d9ed;fill-opacity:1;fill-rule:nonzero;stroke:none"
         id="path100" /><path
         d="m 14873.7,8972.1 h -253.5 v 357.3 h 253.5 v -357.3"
         style="fill:#c4d9ed;fill-opacity:1;fill-rule:nonzero;stroke:none"
         id="path102" /><path
         d="m 14410.3,8972.1 h -253.5 v 357.3 h 253.5 v -357.3"
         style="fill:#c4d9ed;fill-opacity:1;fill-rule:nonzero;stroke:none"
         id="path104" /><path
         d="m 13970.9,8972.1 h -253.5 v 357.3 h 253.5 v -357.3"
         style="fill:#c4d9ed;fill-opacity:1;fill-rule:nonzero;stroke:none"
         id="path106" /><path
         d="m 13523.1,8972.1 h -253.5 v 357.3 h 253.5 v -357.3"
         style="fill:#c4d9ed;fill-opacity:1;fill-rule:nonzero;stroke:none"
         id="path108" /><path
         d="m 13056.4,8972.1 h -253.5 v 357.3 h 253.5 v -357.3"
         style="fill:#c4d9ed;fill-opacity:1;fill-rule:nonzero;stroke:none"
         id="path110" /><path
         d="m 12582.4,8972.1 h -253.5 v 357.3 h 253.5 v -357.3"
         style="fill:#c4d9ed;fill-opacity:1;fill-rule:nonzero;stroke:none"
         id="path112" /><path
         d="m 12119,8972.1 h -253.5 v 357.3 h 253.5 v -357.3"
         style="fill:#c4d9ed;fill-opacity:1;fill-rule:nonzero;stroke:none"
         id="path114" /><path
         d="m 11679.6,8972.1 h -253.5 v 357.3 h 253.5 v -357.3"
         style="fill:#c4d9ed;fill-opacity:1;fill-rule:nonzero;stroke:none"
         id="path116" /><path
         d="m 11231.8,8972.1 h -253.5 v 357.3 h 253.5 v -357.3"
         style="fill:#c4d9ed;fill-opacity:1;fill-rule:nonzero;stroke:none"
         id="path118" /><path
         d="m 10778.8,8972.1 h -253.5 v 357.3 h 253.5 v -357.3"
         style="fill:#c4d9ed;fill-opacity:1;fill-rule:nonzero;stroke:none"
         id="path120" /><path
         d="m 10304.8,8972.1 h -253.5 v 357.3 h 253.5 v -357.3"
         style="fill:#c4d9ed;fill-opacity:1;fill-rule:nonzero;stroke:none"
         id="path122" /><path
         d="M 9841.39,8972.1 H 9587.9 v 357.3 h 253.49 v -357.3"
         style="fill:#c4d9ed;fill-opacity:1;fill-rule:nonzero;stroke:none"
         id="path124" /><path
         d="m 9402,8972.1 h -253.49 v 357.3 H 9402 v -357.3"
         style="fill:#c4d9ed;fill-opacity:1;fill-rule:nonzero;stroke:none"
         id="path126" /><path
         d="m 8954.17,8972.1 h -253.48 v 357.3 h 253.48 v -357.3"
         style="fill:#c4d9ed;fill-opacity:1;fill-rule:nonzero;stroke:none"
         id="path128" /><path
         d="m 17625.4,8351.3 h -253.5 v 357.3 h 253.5 v -357.3"
         style="fill:#c4d9ed;fill-opacity:1;fill-rule:nonzero;stroke:none"
         id="path130" /><path
         d="m 17151.3,8351.3 h -253.5 v 357.3 h 253.5 v -357.3"
         style="fill:#c4d9ed;fill-opacity:1;fill-rule:nonzero;stroke:none"
         id="path132" /><path
         d="m 16687.9,8351.3 h -253.5 v 357.3 h 253.5 v -357.3"
         style="fill:#c4d9ed;fill-opacity:1;fill-rule:nonzero;stroke:none"
         id="path134" /><path
         d="M 16248.5,8351.3 H 15995 v 357.3 h 253.5 v -357.3"
         style="fill:#c4d9ed;fill-opacity:1;fill-rule:nonzero;stroke:none"
         id="path136" /><path
         d="m 15800.7,8351.3 h -253.5 v 357.3 h 253.5 v -357.3"
         style="fill:#c4d9ed;fill-opacity:1;fill-rule:nonzero;stroke:none"
         id="path138" /><path
         d="m 15347.8,8351.3 h -253.5 v 357.3 h 253.5 v -357.3"
         style="fill:#c4d9ed;fill-opacity:1;fill-rule:nonzero;stroke:none"
         id="path140" /><path
         d="m 14873.7,8351.3 h -253.5 v 357.3 h 253.5 v -357.3"
         style="fill:#c4d9ed;fill-opacity:1;fill-rule:nonzero;stroke:none"
         id="path142" /><path
         d="m 14410.3,8351.3 h -253.5 v 357.3 h 253.5 v -357.3"
         style="fill:#c4d9ed;fill-opacity:1;fill-rule:nonzero;stroke:none"
         id="path144" /><path
         d="m 13970.9,8351.3 h -253.5 v 357.3 h 253.5 v -357.3"
         style="fill:#c4d9ed;fill-opacity:1;fill-rule:nonzero;stroke:none"
         id="path146" /><path
         d="m 13523.1,8351.3 h -253.5 v 357.3 h 253.5 v -357.3"
         style="fill:#c4d9ed;fill-opacity:1;fill-rule:nonzero;stroke:none"
         id="path148" /><path
         d="m 13056.4,8351.3 h -253.5 v 357.3 h 253.5 v -357.3"
         style="fill:#c4d9ed;fill-opacity:1;fill-rule:nonzero;stroke:none"
         id="path150" /><path
         d="m 12582.4,8351.3 h -253.5 v 357.3 h 253.5 v -357.3"
         style="fill:#c4d9ed;fill-opacity:1;fill-rule:nonzero;stroke:none"
         id="path152" /><path
         d="m 12119,8351.3 h -253.5 v 357.3 h 253.5 v -357.3"
         style="fill:#c4d9ed;fill-opacity:1;fill-rule:nonzero;stroke:none"
         id="path154" /><path
         d="m 11679.6,8351.3 h -253.5 v 357.3 h 253.5 v -357.3"
         style="fill:#c4d9ed;fill-opacity:1;fill-rule:nonzero;stroke:none"
         id="path156" /><path
         d="m 11231.8,8351.3 h -253.5 v 357.3 h 253.5 v -357.3"
         style="fill:#c4d9ed;fill-opacity:1;fill-rule:nonzero;stroke:none"
         id="path158" /><path
         d="m 10778.8,8351.3 h -253.5 v 357.3 h 253.5 v -357.3"
         style="fill:#c4d9ed;fill-opacity:1;fill-rule:nonzero;stroke:none"
         id="path160" /><path
         d="m 10304.8,8351.3 h -253.5 v 357.3 h 253.5 v -357.3"
         style="fill:#c4d9ed;fill-opacity:1;fill-rule:nonzero;stroke:none"
         id="path162" /><path
         d="M 9841.39,8351.3 H 9587.9 v 357.3 h 253.49 v -357.3"
         style="fill:#c4d9ed;fill-opacity:1;fill-rule:nonzero;stroke:none"
         id="path164" /><path
         d="m 9402,8351.3 h -253.49 v 357.3 H 9402 v -357.3"
         style="fill:#c4d9ed;fill-opacity:1;fill-rule:nonzero;stroke:none"
         id="path166" /><path
         d="m 8954.17,8351.3 h -253.48 v 357.3 h 253.48 v -357.3"
         style="fill:#c4d9ed;fill-opacity:1;fill-rule:nonzero;stroke:none"
         id="path168" /><path
         d="m 17625.4,7691.7 h -253.5 V 8049 h 253.5 v -357.3"
         style="fill:#c4d9ed;fill-opacity:1;fill-rule:nonzero;stroke:none"
         id="path170" /><path
         d="m 17151.3,7691.7 h -253.5 V 8049 h 253.5 v -357.3"
         style="fill:#c4d9ed;fill-opacity:1;fill-rule:nonzero;stroke:none"
         id="path172" /><path
         d="m 16687.9,7691.7 h -253.5 V 8049 h 253.5 v -357.3"
         style="fill:#c4d9ed;fill-opacity:1;fill-rule:nonzero;stroke:none"
         id="path174" /><path
         d="M 16248.5,7691.7 H 15995 V 8049 h 253.5 v -357.3"
         style="fill:#c4d9ed;fill-opacity:1;fill-rule:nonzero;stroke:none"
         id="path176" /><path
         d="m 15800.7,7691.7 h -253.5 V 8049 h 253.5 v -357.3"
         style="fill:#c4d9ed;fill-opacity:1;fill-rule:nonzero;stroke:none"
         id="path178" /><path
         d="m 15347.8,7691.7 h -253.5 V 8049 h 253.5 v -357.3"
         style="fill:#c4d9ed;fill-opacity:1;fill-rule:nonzero;stroke:none"
         id="path180" /><path
         d="m 14873.7,7691.7 h -253.5 V 8049 h 253.5 v -357.3"
         style="fill:#c4d9ed;fill-opacity:1;fill-rule:nonzero;stroke:none"
         id="path182" /><path
         d="m 14410.3,7691.7 h -253.5 V 8049 h 253.5 v -357.3"
         style="fill:#c4d9ed;fill-opacity:1;fill-rule:nonzero;stroke:none"
         id="path184" /><path
         d="m 13970.9,7691.7 h -253.5 V 8049 h 253.5 v -357.3"
         style="fill:#c4d9ed;fill-opacity:1;fill-rule:nonzero;stroke:none"
         id="path186" /><path
         d="m 13523.1,7691.7 h -253.5 V 8049 h 253.5 v -357.3"
         style="fill:#c4d9ed;fill-opacity:1;fill-rule:nonzero;stroke:none"
         id="path188" /><path
         d="m 13056.4,7691.7 h -253.5 V 8049 h 253.5 v -357.3"
         style="fill:#c4d9ed;fill-opacity:1;fill-rule:nonzero;stroke:none"
         id="path190" /><path
         d="m 12582.4,7691.7 h -253.5 V 8049 h 253.5 v -357.3"
         style="fill:#c4d9ed;fill-opacity:1;fill-rule:nonzero;stroke:none"
         id="path192" /><path
         d="m 12119,7691.7 h -253.5 V 8049 h 253.5 v -357.3"
         style="fill:#c4d9ed;fill-opacity:1;fill-rule:nonzero;stroke:none"
         id="path194" /><path
         d="m 11679.6,7691.7 h -253.5 V 8049 h 253.5 v -357.3"
         style="fill:#c4d9ed;fill-opacity:1;fill-rule:nonzero;stroke:none"
         id="path196" /><path
         d="m 11231.8,7691.7 h -253.5 V 8049 h 253.5 v -357.3"
         style="fill:#c4d9ed;fill-opacity:1;fill-rule:nonzero;stroke:none"
         id="path198" /><path
         d="m 10778.8,7691.7 h -253.5 V 8049 h 253.5 v -357.3"
         style="fill:#c4d9ed;fill-opacity:1;fill-rule:nonzero;stroke:none"
         id="path200" /><path
         d="m 10304.8,7691.7 h -253.5 V 8049 h 253.5 v -357.3"
         style="fill:#c4d9ed;fill-opacity:1;fill-rule:nonzero;stroke:none"
         id="path202" /><path
         d="M 9841.39,7691.7 H 9587.9 V 8049 h 253.49 v -357.3"
         style="fill:#c4d9ed;fill-opacity:1;fill-rule:nonzero;stroke:none"
         id="path204" /><path
         d="M 9402,7691.7 H 9148.51 V 8049 H 9402 v -357.3"
         style="fill:#c4d9ed;fill-opacity:1;fill-rule:nonzero;stroke:none"
         id="path206" /><path
         d="M 8954.17,7691.7 H 8700.69 V 8049 h 253.48 v -357.3"
         style="fill:#c4d9ed;fill-opacity:1;fill-rule:nonzero;stroke:none"
         id="path208" /><path
         d="m 17625.4,7061.2 h -253.5 v 357.3 h 253.5 v -357.3"
         style="fill:#c4d9ed;fill-opacity:1;fill-rule:nonzero;stroke:none"
         id="path210" /><path
         d="m 17151.3,7061.2 h -253.5 v 357.3 h 253.5 v -357.3"
         style="fill:#c4d9ed;fill-opacity:1;fill-rule:nonzero;stroke:none"
         id="path212" /><path
         d="m 16687.9,7061.2 h -253.5 v 357.3 h 253.5 v -357.3"
         style="fill:#c4d9ed;fill-opacity:1;fill-rule:nonzero;stroke:none"
         id="path214" /><path
         d="M 16248.5,7061.2 H 15995 v 357.3 h 253.5 v -357.3"
         style="fill:#c4d9ed;fill-opacity:1;fill-rule:nonzero;stroke:none"
         id="path216" /><path
         d="m 15800.7,7061.2 h -253.5 v 357.3 h 253.5 v -357.3"
         style="fill:#c4d9ed;fill-opacity:1;fill-rule:nonzero;stroke:none"
         id="path218" /><path
         d="m 15347.8,7061.2 h -253.5 v 357.3 h 253.5 v -357.3"
         style="fill:#c4d9ed;fill-opacity:1;fill-rule:nonzero;stroke:none"
         id="path220" /><path
         d="m 14873.7,7061.2 h -253.5 v 357.3 h 253.5 v -357.3"
         style="fill:#c4d9ed;fill-opacity:1;fill-rule:nonzero;stroke:none"
         id="path222" /><path
         d="m 14410.3,7061.2 h -253.5 v 357.3 h 253.5 v -357.3"
         style="fill:#c4d9ed;fill-opacity:1;fill-rule:nonzero;stroke:none"
         id="path224" /><path
         d="m 13970.9,7061.2 h -253.5 v 357.3 h 253.5 v -357.3"
         style="fill:#c4d9ed;fill-opacity:1;fill-rule:nonzero;stroke:none"
         id="path226" /><path
         d="m 13523.1,7061.2 h -253.5 v 357.3 h 253.5 v -357.3"
         style="fill:#c4d9ed;fill-opacity:1;fill-rule:nonzero;stroke:none"
         id="path228" /><path
         d="m 13056.4,7061.2 h -253.5 v 357.3 h 253.5 v -357.3"
         style="fill:#c4d9ed;fill-opacity:1;fill-rule:nonzero;stroke:none"
         id="path230" /><path
         d="m 12582.4,7061.2 h -253.5 v 357.3 h 253.5 v -357.3"
         style="fill:#c4d9ed;fill-opacity:1;fill-rule:nonzero;stroke:none"
         id="path232" /><path
         d="m 12119,7061.2 h -253.5 v 357.3 h 253.5 v -357.3"
         style="fill:#c4d9ed;fill-opacity:1;fill-rule:nonzero;stroke:none"
         id="path234" /><path
         d="m 11679.6,7061.2 h -253.5 v 357.3 h 253.5 v -357.3"
         style="fill:#c4d9ed;fill-opacity:1;fill-rule:nonzero;stroke:none"
         id="path236" /><path
         d="m 11231.8,7061.2 h -253.5 v 357.3 h 253.5 v -357.3"
         style="fill:#c4d9ed;fill-opacity:1;fill-rule:nonzero;stroke:none"
         id="path238" /><path
         d="m 10778.8,7061.2 h -253.5 v 357.3 h 253.5 v -357.3"
         style="fill:#c4d9ed;fill-opacity:1;fill-rule:nonzero;stroke:none"
         id="path240" /><path
         d="m 10304.8,7061.2 h -253.5 v 357.3 h 253.5 v -357.3"
         style="fill:#c4d9ed;fill-opacity:1;fill-rule:nonzero;stroke:none"
         id="path242" /><path
         d="m 9402,7061.2 h -253.49 v 357.3 H 9402 v -357.3"
         style="fill:#c4d9ed;fill-opacity:1;fill-rule:nonzero;stroke:none"
         id="path244" /><path
         d="M 9841.39,7061.2 H 9587.9 v 357.3 h 253.49 v -357.3"
         style="fill:#c4d9ed;fill-opacity:1;fill-rule:nonzero;stroke:none"
         id="path246" /><path
         d="m 8954.17,7061.2 h -253.48 v 357.3 h 253.48 v -357.3"
         style="fill:#c4d9ed;fill-opacity:1;fill-rule:nonzero;stroke:none"
         id="path248" /><path
         d="m 17625.4,6440.4 h -253.5 v 357.2 h 253.5 v -357.2"
         style="fill:#c4d9ed;fill-opacity:1;fill-rule:nonzero;stroke:none"
         id="path250" /><path
         d="m 17151.3,6440.4 h -253.5 v 357.2 h 253.5 v -357.2"
         style="fill:#c4d9ed;fill-opacity:1;fill-rule:nonzero;stroke:none"
         id="path252" /><path
         d="m 16687.9,6440.4 h -253.5 v 357.2 h 253.5 v -357.2"
         style="fill:#c4d9ed;fill-opacity:1;fill-rule:nonzero;stroke:none"
         id="path254" /><path
         d="M 16248.5,6440.4 H 15995 v 357.2 h 253.5 v -357.2"
         style="fill:#c4d9ed;fill-opacity:1;fill-rule:nonzero;stroke:none"
         id="path256" /><path
         d="m 15800.7,6440.4 h -253.5 v 357.2 h 253.5 v -357.2"
         style="fill:#c4d9ed;fill-opacity:1;fill-rule:nonzero;stroke:none"
         id="path258" /><path
         d="m 15347.8,6440.4 h -253.5 v 357.2 h 253.5 v -357.2"
         style="fill:#c4d9ed;fill-opacity:1;fill-rule:nonzero;stroke:none"
         id="path260" /><path
         d="m 14873.7,6440.4 h -253.5 v 357.2 h 253.5 v -357.2"
         style="fill:#c4d9ed;fill-opacity:1;fill-rule:nonzero;stroke:none"
         id="path262" /><path
         d="m 14410.3,6440.4 h -253.5 v 357.2 h 253.5 v -357.2"
         style="fill:#c4d9ed;fill-opacity:1;fill-rule:nonzero;stroke:none"
         id="path264" /><path
         d="m 13970.9,6440.4 h -253.5 v 357.2 h 253.5 v -357.2"
         style="fill:#c4d9ed;fill-opacity:1;fill-rule:nonzero;stroke:none"
         id="path266" /><path
         d="m 13523.1,6440.4 h -253.5 v 357.2 h 253.5 v -357.2"
         style="fill:#c4d9ed;fill-opacity:1;fill-rule:nonzero;stroke:none"
         id="path268" /><path
         d="m 13056.4,6440.4 h -253.5 v 357.2 h 253.5 v -357.2"
         style="fill:#c4d9ed;fill-opacity:1;fill-rule:nonzero;stroke:none"
         id="path270" /><path
         d="m 12582.4,6440.4 h -253.5 v 357.2 h 253.5 v -357.2"
         style="fill:#c4d9ed;fill-opacity:1;fill-rule:nonzero;stroke:none"
         id="path272" /><path
         d="m 12119,6440.4 h -253.5 v 357.2 h 253.5 v -357.2"
         style="fill:#c4d9ed;fill-opacity:1;fill-rule:nonzero;stroke:none"
         id="path274" /><path
         d="m 11679.6,6440.4 h -253.5 v 357.2 h 253.5 v -357.2"
         style="fill:#c4d9ed;fill-opacity:1;fill-rule:nonzero;stroke:none"
         id="path276" /><path
         d="m 11231.8,6440.4 h -253.5 v 357.2 h 253.5 v -357.2"
         style="fill:#c4d9ed;fill-opacity:1;fill-rule:nonzero;stroke:none"
         id="path278" /><path
         d="m 10778.8,6440.4 h -253.5 v 357.2 h 253.5 v -357.2"
         style="fill:#c4d9ed;fill-opacity:1;fill-rule:nonzero;stroke:none"
         id="path280" /><path
         d="m 10304.8,6440.4 h -253.5 v 357.2 h 253.5 v -357.2"
         style="fill:#c4d9ed;fill-opacity:1;fill-rule:nonzero;stroke:none"
         id="path282" /><path
         d="m 9402,6440.4 h -253.49 v 357.2 H 9402 v -357.2"
         style="fill:#c4d9ed;fill-opacity:1;fill-rule:nonzero;stroke:none"
         id="path284" /><path
         d="m 8954.17,6440.4 h -253.48 v 357.2 h 253.48 v -357.2"
         style="fill:#c4d9ed;fill-opacity:1;fill-rule:nonzero;stroke:none"
         id="path286" /><path
         d="M 6575.74,7504 V 3688.8 H 6011.81 V 7504 h 563.93"
         style="fill:#c4d9ed;fill-opacity:1;fill-rule:nonzero;stroke:none"
         id="path288" /><path
         d="m 6575.74,2534.4 h 605.39 v 2650 h -605.39 v -2650"
         style="fill:#adc9e0;fill-opacity:1;fill-rule:nonzero;stroke:none"
         id="path290" /><path
         d="m 19832.2,8578.4 v 743.2 h -30.5 v -743.2 h -418.2 v -917.1 h 861.2 v 917.1 h -412.5"
         style="fill:#c4d9ed;fill-opacity:1;fill-rule:nonzero;stroke:none"
         id="path292" /><path
         d="m 22327.5,10497.6 v 570.2 h -242.3 v 248.2 h -30.5 v -248.2 h -883.5 -16.1 -167.1 v 248.2 h -30.6 v -248.2 h -214.3 V 8576 h 428.1 v 1073.7 h 1156.3 v 570.2 h -1156.3 v 277.7 h 1156.3"
         style="fill:#c4d9ed;fill-opacity:1;fill-rule:nonzero;stroke:none"
         id="path294" /><path
         d="M 9809.39,6948.7 V 3732.5 H 6575.74 V 7504 l 3233.65,-555.3"
         style="fill:#d5e7f7;fill-opacity:1;fill-rule:nonzero;stroke:none"
         id="path296" /><path
         d="M 9809.39,2481.3 H 5775.32 v 2713 h 4034.07 v -2713"
         style="fill:#d5e7f7;fill-opacity:1;fill-rule:nonzero;stroke:none"
         id="path298" /><path
         d="M 9809.39,5918.2 H 5775.32 V 6800 h 4034.07 v -881.8"
         style="fill:#c4d9ed;fill-opacity:1;fill-rule:nonzero;stroke:none"
         id="path300" /><path
         d="m 9534.71,4166.7 h -207.18 v 292 h 207.18 v -292"
         style="fill:#c4d9ed;fill-opacity:1;fill-rule:nonzero;stroke:none"
         id="path302" /><path
         d="M 9147.28,4166.7 H 8940.1 v 292 h 207.18 v -292"
         style="fill:#c4d9ed;fill-opacity:1;fill-rule:nonzero;stroke:none"
         id="path304" /><path
         d="m 8768.52,4166.7 h -207.18 v 292 h 207.18 v -292"
         style="fill:#c4d9ed;fill-opacity:1;fill-rule:nonzero;stroke:none"
         id="path306" /><path
         d="m 8409.4,4166.7 h -207.18 v 292 h 207.18 v -292"
         style="fill:#c4d9ed;fill-opacity:1;fill-rule:nonzero;stroke:none"
         id="path308" /><path
         d="M 8043.38,4166.7 H 7836.2 v 292 h 207.18 v -292"
         style="fill:#c4d9ed;fill-opacity:1;fill-rule:nonzero;stroke:none"
         id="path310" /><path
         d="M 7673.17,4166.7 H 7466 v 292 h 207.17 v -292"
         style="fill:#c4d9ed;fill-opacity:1;fill-rule:nonzero;stroke:none"
         id="path312" /><path
         d="m 7285.74,4166.7 h -207.19 v 292 h 207.19 v -292"
         style="fill:#c4d9ed;fill-opacity:1;fill-rule:nonzero;stroke:none"
         id="path314" /><path
         d="m 6906.98,4166.7 h -207.19 v 292 h 207.19 v -292"
         style="fill:#c4d9ed;fill-opacity:1;fill-rule:nonzero;stroke:none"
         id="path316" /><path
         d="m 6547.86,4166.7 h -207.18 v 292 h 207.18 v -292"
         style="fill:#c4d9ed;fill-opacity:1;fill-rule:nonzero;stroke:none"
         id="path318" /><path
         d="m 6181.85,4458.7 v -292 h -207.19 v 292 h 207.19"
         style="fill:#c4d9ed;fill-opacity:1;fill-rule:nonzero;stroke:none"
         id="path320" /><path
         d="m 9534.71,3651.4 h -207.18 v 292 h 207.18 v -292"
         style="fill:#c4d9ed;fill-opacity:1;fill-rule:nonzero;stroke:none"
         id="path322" /><path
         d="M 9147.28,3651.4 H 8940.1 v 292 h 207.18 v -292"
         style="fill:#c4d9ed;fill-opacity:1;fill-rule:nonzero;stroke:none"
         id="path324" /><path
         d="m 8768.52,3651.4 h -207.18 v 292 h 207.18 v -292"
         style="fill:#c4d9ed;fill-opacity:1;fill-rule:nonzero;stroke:none"
         id="path326" /><path
         d="m 8409.4,3651.4 h -207.18 v 292 h 207.18 v -292"
         style="fill:#c4d9ed;fill-opacity:1;fill-rule:nonzero;stroke:none"
         id="path328" /><path
         d="M 8043.38,3651.4 H 7836.2 v 292 h 207.18 v -292"
         style="fill:#c4d9ed;fill-opacity:1;fill-rule:nonzero;stroke:none"
         id="path330" /><path
         d="M 7673.17,3651.4 H 7466 v 292 h 207.17 v -292"
         style="fill:#c4d9ed;fill-opacity:1;fill-rule:nonzero;stroke:none"
         id="path332" /><path
         d="m 7285.74,3651.4 h -207.19 v 292 h 207.19 v -292"
         style="fill:#c4d9ed;fill-opacity:1;fill-rule:nonzero;stroke:none"
         id="path334" /><path
         d="m 6906.98,3651.4 h -207.19 v 292 h 207.19 v -292"
         style="fill:#c4d9ed;fill-opacity:1;fill-rule:nonzero;stroke:none"
         id="path336" /><path
         d="m 6547.86,3651.4 h -207.18 v 292 h 207.18 v -292"
         style="fill:#c4d9ed;fill-opacity:1;fill-rule:nonzero;stroke:none"
         id="path338" /><path
         d="m 6181.85,3651.4 h -207.19 v 292 h 207.19 v -292"
         style="fill:#c4d9ed;fill-opacity:1;fill-rule:nonzero;stroke:none"
         id="path340" /><path
         d="m 9534.71,5205.1 h -207.18 v 292 h 207.18 v -292"
         style="fill:#c4d9ed;fill-opacity:1;fill-rule:nonzero;stroke:none"
         id="path342" /><path
         d="M 9147.28,5205.1 H 8940.1 v 292 h 207.18 v -292"
         style="fill:#c4d9ed;fill-opacity:1;fill-rule:nonzero;stroke:none"
         id="path344" /><path
         d="m 8768.52,5205.1 h -207.18 v 292 h 207.18 v -292"
         style="fill:#c4d9ed;fill-opacity:1;fill-rule:nonzero;stroke:none"
         id="path346" /><path
         d="m 8409.4,5205.1 h -207.18 v 292 h 207.18 v -292"
         style="fill:#c4d9ed;fill-opacity:1;fill-rule:nonzero;stroke:none"
         id="path348" /><path
         d="M 8043.38,5205.1 H 7836.2 v 292 h 207.18 v -292"
         style="fill:#c4d9ed;fill-opacity:1;fill-rule:nonzero;stroke:none"
         id="path350" /><path
         d="M 7673.17,5205.1 H 7466 v 292 h 207.17 v -292"
         style="fill:#c4d9ed;fill-opacity:1;fill-rule:nonzero;stroke:none"
         id="path352" /><path
         d="m 7285.74,5205.1 h -207.19 v 292 h 207.19 v -292"
         style="fill:#c4d9ed;fill-opacity:1;fill-rule:nonzero;stroke:none"
         id="path354" /><path
         d="m 6906.98,5205.1 h -207.19 v 292 h 207.19 v -292"
         style="fill:#c4d9ed;fill-opacity:1;fill-rule:nonzero;stroke:none"
         id="path356" /><path
         d="m 9534.71,4689.8 h -207.18 v 292 h 207.18 v -292"
         style="fill:#c4d9ed;fill-opacity:1;fill-rule:nonzero;stroke:none"
         id="path358" /><path
         d="M 9147.28,4689.8 H 8940.1 v 292 h 207.18 v -292"
         style="fill:#c4d9ed;fill-opacity:1;fill-rule:nonzero;stroke:none"
         id="path360" /><path
         d="m 8768.52,4689.8 h -207.18 v 292 h 207.18 v -292"
         style="fill:#c4d9ed;fill-opacity:1;fill-rule:nonzero;stroke:none"
         id="path362" /><path
         d="m 8409.4,4689.8 h -207.18 v 292 h 207.18 v -292"
         style="fill:#c4d9ed;fill-opacity:1;fill-rule:nonzero;stroke:none"
         id="path364" /><path
         d="M 8043.38,4689.8 H 7836.2 v 292 h 207.18 v -292"
         style="fill:#c4d9ed;fill-opacity:1;fill-rule:nonzero;stroke:none"
         id="path366" /><path
         d="M 7673.17,4689.8 H 7466 v 292 h 207.17 v -292"
         style="fill:#c4d9ed;fill-opacity:1;fill-rule:nonzero;stroke:none"
         id="path368" /><path
         d="m 7285.74,4689.8 h -207.19 v 292 h 207.19 v -292"
         style="fill:#c4d9ed;fill-opacity:1;fill-rule:nonzero;stroke:none"
         id="path370" /><path
         d="m 6906.98,4689.8 h -207.19 v 292 h 207.19 v -292"
         style="fill:#c4d9ed;fill-opacity:1;fill-rule:nonzero;stroke:none"
         id="path372" /><path
         d="m 6547.86,4689.8 h -207.18 v 292 h 207.18 v -292"
         style="fill:#c4d9ed;fill-opacity:1;fill-rule:nonzero;stroke:none"
         id="path374" /><path
         d="m 6181.85,4689.8 h -207.19 v 292 h 207.19 v -292"
         style="fill:#c4d9ed;fill-opacity:1;fill-rule:nonzero;stroke:none"
         id="path376" /><path
         d="M 9534.71,3143.9 H 9327.53 V 3436 h 207.18 v -292.1"
         style="fill:#c4d9ed;fill-opacity:1;fill-rule:nonzero;stroke:none"
         id="path378" /><path
         d="M 9147.28,3143.9 H 8940.1 V 3436 h 207.18 v -292.1"
         style="fill:#c4d9ed;fill-opacity:1;fill-rule:nonzero;stroke:none"
         id="path380" /><path
         d="M 8768.52,3143.9 H 8561.34 V 3436 h 207.18 v -292.1"
         style="fill:#c4d9ed;fill-opacity:1;fill-rule:nonzero;stroke:none"
         id="path382" /><path
         d="M 8409.4,3143.9 H 8202.22 V 3436 h 207.18 v -292.1"
         style="fill:#c4d9ed;fill-opacity:1;fill-rule:nonzero;stroke:none"
         id="path384" /><path
         d="M 8043.38,3143.9 H 7836.2 V 3436 h 207.18 v -292.1"
         style="fill:#c4d9ed;fill-opacity:1;fill-rule:nonzero;stroke:none"
         id="path386" /><path
         d="M 7673.17,3143.9 H 7466 V 3436 h 207.17 v -292.1"
         style="fill:#c4d9ed;fill-opacity:1;fill-rule:nonzero;stroke:none"
         id="path388" /><path
         d="M 7285.74,3143.9 H 7078.55 V 3436 h 207.19 v -292.1"
         style="fill:#c4d9ed;fill-opacity:1;fill-rule:nonzero;stroke:none"
         id="path390" /><path
         d="M 6906.98,3143.9 H 6699.79 V 3436 h 207.19 v -292.1"
         style="fill:#c4d9ed;fill-opacity:1;fill-rule:nonzero;stroke:none"
         id="path392" /><path
         d="M 6547.86,3143.9 H 6340.68 V 3436 h 207.18 v -292.1"
         style="fill:#c4d9ed;fill-opacity:1;fill-rule:nonzero;stroke:none"
         id="path394" /><path
         d="M 6181.85,3143.9 H 5974.66 V 3436 h 207.19 v -292.1"
         style="fill:#c4d9ed;fill-opacity:1;fill-rule:nonzero;stroke:none"
         id="path396" /><path
         d="m 6852.36,8109.6 v -764.7 h -59.75 v 764.7 h 59.75"
         style="fill:#d5e7f7;fill-opacity:1;fill-rule:nonzero;stroke:none"
         id="path398" /><path
         d="m 9501.63,6251 h -174.1 v 301.2 h 174.1 V 6251"
         style="fill:#d5e7f7;fill-opacity:1;fill-rule:nonzero;stroke:none"
         id="path400" /><path
         d="m 7773.2,6251 h -174.1 v 301.2 h 174.1 V 6251"
         style="fill:#d5e7f7;fill-opacity:1;fill-rule:nonzero;stroke:none"
         id="path402" /><path
         d="M 6398.24,6552.2 V 6251 h -174.1 v 301.2 h 174.1"
         style="fill:#d5e7f7;fill-opacity:1;fill-rule:nonzero;stroke:none"
         id="path404" /><path
         d="M 20552.5,2481.3 H 14747 v 3396 h 5805.5 v -3396"
         style="fill:#c4d9ed;fill-opacity:1;fill-rule:nonzero;stroke:none"
         id="path406" /><path
         d="m 15284.2,5056.6 h -309.5 v 472.6 h 309.5 v -472.6"
         style="fill:#d5e7f7;fill-opacity:1;fill-rule:nonzero;stroke:none"
         id="path408" /><path
         d="m 15830.1,5056.6 h -309.6 v 472.6 h 309.6 v -472.6"
         style="fill:#d5e7f7;fill-opacity:1;fill-rule:nonzero;stroke:none"
         id="path410" /><path
         d="M 16379.5,5056.6 H 16070 v 472.6 h 309.5 v -472.6"
         style="fill:#d5e7f7;fill-opacity:1;fill-rule:nonzero;stroke:none"
         id="path412" /><path
         d="m 16925.3,5056.6 h -309.5 v 472.6 h 309.5 v -472.6"
         style="fill:#d5e7f7;fill-opacity:1;fill-rule:nonzero;stroke:none"
         id="path414" /><path
         d="M 17487.5,5056.6 H 17178 v 472.6 h 309.5 v -472.6"
         style="fill:#d5e7f7;fill-opacity:1;fill-rule:nonzero;stroke:none"
         id="path416" /><path
         d="m 18033.3,5056.6 h -309.5 v 472.6 h 309.5 v -472.6"
         style="fill:#d5e7f7;fill-opacity:1;fill-rule:nonzero;stroke:none"
         id="path418" /><path
         d="m 18582.8,5056.6 h -309.6 v 472.6 h 309.6 v -472.6"
         style="fill:#d5e7f7;fill-opacity:1;fill-rule:nonzero;stroke:none"
         id="path420" /><path
         d="m 19128.6,5056.6 h -309.5 v 472.6 h 309.5 v -472.6"
         style="fill:#d5e7f7;fill-opacity:1;fill-rule:nonzero;stroke:none"
         id="path422" /><path
         d="m 19701,5056.6 h -309.5 v 472.6 h 309.5 v -472.6"
         style="fill:#d5e7f7;fill-opacity:1;fill-rule:nonzero;stroke:none"
         id="path424" /><path
         d="m 20246.9,5056.6 h -309.6 v 472.6 h 309.6 v -472.6"
         style="fill:#d5e7f7;fill-opacity:1;fill-rule:nonzero;stroke:none"
         id="path426" /><path
         d="m 15284.2,4357.6 h -309.5 v 472.6 h 309.5 v -472.6"
         style="fill:#d5e7f7;fill-opacity:1;fill-rule:nonzero;stroke:none"
         id="path428" /><path
         d="m 15830.1,4357.6 h -309.6 v 472.6 h 309.6 v -472.6"
         style="fill:#d5e7f7;fill-opacity:1;fill-rule:nonzero;stroke:none"
         id="path430" /><path
         d="M 16379.5,4357.6 H 16070 v 472.6 h 309.5 v -472.6"
         style="fill:#d5e7f7;fill-opacity:1;fill-rule:nonzero;stroke:none"
         id="path432" /><path
         d="m 16925.3,4357.6 h -309.5 v 472.6 h 309.5 v -472.6"
         style="fill:#d5e7f7;fill-opacity:1;fill-rule:nonzero;stroke:none"
         id="path434" /><path
         d="M 17487.5,4357.6 H 17178 v 472.6 h 309.5 v -472.6"
         style="fill:#d5e7f7;fill-opacity:1;fill-rule:nonzero;stroke:none"
         id="path436" /><path
         d="m 18033.3,4357.6 h -309.5 v 472.6 h 309.5 v -472.6"
         style="fill:#d5e7f7;fill-opacity:1;fill-rule:nonzero;stroke:none"
         id="path438" /><path
         d="m 18582.8,4357.6 h -309.6 v 472.6 h 309.6 v -472.6"
         style="fill:#d5e7f7;fill-opacity:1;fill-rule:nonzero;stroke:none"
         id="path440" /><path
         d="m 19128.6,4357.6 h -309.5 v 472.6 h 309.5 v -472.6"
         style="fill:#d5e7f7;fill-opacity:1;fill-rule:nonzero;stroke:none"
         id="path442" /><path
         d="m 19701,4357.6 h -309.5 v 472.6 h 309.5 v -472.6"
         style="fill:#d5e7f7;fill-opacity:1;fill-rule:nonzero;stroke:none"
         id="path444" /><path
         d="m 20246.9,4357.6 h -309.6 v 472.6 h 309.6 v -472.6"
         style="fill:#d5e7f7;fill-opacity:1;fill-rule:nonzero;stroke:none"
         id="path446" /><path
         d="m 15284.2,3606.9 h -309.5 v 472.6 h 309.5 v -472.6"
         style="fill:#d5e7f7;fill-opacity:1;fill-rule:nonzero;stroke:none"
         id="path448" /><path
         d="m 15830.1,3606.9 h -309.6 v 472.6 h 309.6 v -472.6"
         style="fill:#d5e7f7;fill-opacity:1;fill-rule:nonzero;stroke:none"
         id="path450" /><path
         d="M 16379.5,3606.9 H 16070 v 472.6 h 309.5 v -472.6"
         style="fill:#d5e7f7;fill-opacity:1;fill-rule:nonzero;stroke:none"
         id="path452" /><path
         d="m 16925.3,3606.9 h -309.5 v 472.6 h 309.5 v -472.6"
         style="fill:#d5e7f7;fill-opacity:1;fill-rule:nonzero;stroke:none"
         id="path454" /><path
         d="M 17487.5,3606.9 H 17178 v 472.6 h 309.5 v -472.6"
         style="fill:#d5e7f7;fill-opacity:1;fill-rule:nonzero;stroke:none"
         id="path456" /><path
         d="m 18033.3,3606.9 h -309.5 v 472.6 h 309.5 v -472.6"
         style="fill:#d5e7f7;fill-opacity:1;fill-rule:nonzero;stroke:none"
         id="path458" /><path
         d="m 18582.8,3606.9 h -309.6 v 472.6 h 309.6 v -472.6"
         style="fill:#d5e7f7;fill-opacity:1;fill-rule:nonzero;stroke:none"
         id="path460" /><path
         d="m 19128.6,3606.9 h -309.5 v 472.6 h 309.5 v -472.6"
         style="fill:#d5e7f7;fill-opacity:1;fill-rule:nonzero;stroke:none"
         id="path462" /><path
         d="m 19701,3606.9 h -309.5 v 472.6 h 309.5 v -472.6"
         style="fill:#d5e7f7;fill-opacity:1;fill-rule:nonzero;stroke:none"
         id="path464" /><path
         d="m 20246.9,3606.9 h -309.6 v 472.6 h 309.6 v -472.6"
         style="fill:#d5e7f7;fill-opacity:1;fill-rule:nonzero;stroke:none"
         id="path466" /><path
         d="m 15284.2,2907.9 h -309.5 v 472.6 h 309.5 v -472.6"
         style="fill:#d5e7f7;fill-opacity:1;fill-rule:nonzero;stroke:none"
         id="path468" /><path
         d="m 15830.1,2907.9 h -309.6 v 472.6 h 309.6 v -472.6"
         style="fill:#d5e7f7;fill-opacity:1;fill-rule:nonzero;stroke:none"
         id="path470" /><path
         d="M 16379.5,2907.9 H 16070 v 472.6 h 309.5 v -472.6"
         style="fill:#d5e7f7;fill-opacity:1;fill-rule:nonzero;stroke:none"
         id="path472" /><path
         d="m 16925.3,2907.9 h -309.5 v 472.6 h 309.5 v -472.6"
         style="fill:#d5e7f7;fill-opacity:1;fill-rule:nonzero;stroke:none"
         id="path474" /><path
         d="M 17487.5,2907.9 H 17178 v 472.6 h 309.5 v -472.6"
         style="fill:#d5e7f7;fill-opacity:1;fill-rule:nonzero;stroke:none"
         id="path476" /><path
         d="m 18033.3,2907.9 h -309.5 v 472.6 h 309.5 v -472.6"
         style="fill:#d5e7f7;fill-opacity:1;fill-rule:nonzero;stroke:none"
         id="path478" /><path
         d="m 18582.8,2907.9 h -309.6 v 472.6 h 309.6 v -472.6"
         style="fill:#d5e7f7;fill-opacity:1;fill-rule:nonzero;stroke:none"
         id="path480" /><path
         d="m 19128.6,2907.9 h -309.5 v 472.6 h 309.5 v -472.6"
         style="fill:#d5e7f7;fill-opacity:1;fill-rule:nonzero;stroke:none"
         id="path482" /><path
         d="m 19701,2907.9 h -309.5 v 472.6 h 309.5 v -472.6"
         style="fill:#d5e7f7;fill-opacity:1;fill-rule:nonzero;stroke:none"
         id="path484" /><path
         d="m 20246.9,2907.9 h -309.6 v 472.6 h 309.6 v -472.6"
         style="fill:#d5e7f7;fill-opacity:1;fill-rule:nonzero;stroke:none"
         id="path486" /><path
         d="m 18552.5,5722.2 h 1211.4 v 1056.2 l -1211.4,-463.8 v -592.4"
         style="fill:#c4d9ed;fill-opacity:1;fill-rule:nonzero;stroke:none"
         id="path488" /><path
         d="M 12581.8,2481.3 H 9809.39 V 5497.1 L 12581.8,4537.4 V 2481.3"
         style="fill:#c4d9ed;fill-opacity:1;fill-rule:nonzero;stroke:none"
         id="path490" /><path
         d="M 12508.5,4344.3 H 9882.61 v 93.2 h 2625.89 v -93.2"
         style="fill:#d5e7f7;fill-opacity:1;fill-rule:nonzero;stroke:none"
         id="path492" /><path
         d="M 12508.5,4044.8 H 9882.61 v 93.2 h 2625.89 v -93.2"
         style="fill:#d5e7f7;fill-opacity:1;fill-rule:nonzero;stroke:none"
         id="path494" /><path
         d="M 12508.5,3745.3 H 9882.61 v 93.1 h 2625.89 v -93.1"
         style="fill:#d5e7f7;fill-opacity:1;fill-rule:nonzero;stroke:none"
         id="path496" /><path
         d="M 12508.5,3445.7 H 9882.61 v 93.2 h 2625.89 v -93.2"
         style="fill:#d5e7f7;fill-opacity:1;fill-rule:nonzero;stroke:none"
         id="path498" /><path
         d="M 12508.5,3146.2 H 9882.61 v 93.2 h 2625.89 v -93.2"
         style="fill:#d5e7f7;fill-opacity:1;fill-rule:nonzero;stroke:none"
         id="path500" /><path
         d="M 12508.5,2846.7 H 9882.61 v 93.1 h 2625.89 v -93.1"
         style="fill:#d5e7f7;fill-opacity:1;fill-rule:nonzero;stroke:none"
         id="path502" /><path
         d="m 19996.9,5877.3 h -233 v 901.1 h 233 v -901.1"
         style="fill:#c4d9ed;fill-opacity:1;fill-rule:nonzero;stroke:none"
         id="path504" /><path
         d="m 19035.4,6016.7 v 309.6 h 472.6 v -309.6 h -472.6"
         style="fill:#d5e7f7;fill-opacity:1;fill-rule:nonzero;stroke:none"
         id="path506" /><path
         d="m 10218,11165.4 h -160.7 v 1362.9 h 160.7 v -1362.9"
         style="fill:#c4d9ed;fill-opacity:1;fill-rule:nonzero;stroke:none"
         id="path508" /><path
         d="m 10537.5,11165.4 h -160.6 v 1362.9 h 160.6 v -1362.9"
         style="fill:#c4d9ed;fill-opacity:1;fill-rule:nonzero;stroke:none"
         id="path510" /><path
         d="M 10852.7,11165.4 H 10692 v 1362.9 h 160.7 v -1362.9"
         style="fill:#c4d9ed;fill-opacity:1;fill-rule:nonzero;stroke:none"
         id="path512" /><path
         d="m 11178.9,11165.4 h -160.7 v 1362.9 h 160.7 v -1362.9"
         style="fill:#c4d9ed;fill-opacity:1;fill-rule:nonzero;stroke:none"
         id="path514" /><path
         d="m 4675.95,2465.2 c 0,0 260.6,720.8 1483.45,526 1222.86,-194.8 1764.12,-58.5 2365.52,97.4 601.41,155.8 859.62,163.6 1432.15,-44.8 572.53,-208.5 773.03,-637 2637.33,-208.5 1864.4,428.6 2746.4,779.2 3909.1,448.1 1162.8,-331.2 2595.2,274.4 4029.4,-292.2 1434.2,-566.6 3648.5,428.5 4771.2,-526 H 4675.95"
         style="fill:#88b374;fill-opacity:1;fill-rule:nonzero;stroke:none"
         id="path516" /><path
         d="m 13266.7,8602.8 -1506.8,661.4 c -97.8,42.9 -142.3,157 -99.4,254.8 l 851.5,1939.8 c 43,97.8 157.1,142.3 254.9,99.4 l 1506.8,-661.4 -1007,-2294"
         style="fill:#ebba56;fill-opacity:1;fill-rule:nonzero;stroke:none"
         id="path518" /><path
         d="m 13266.7,8602.8 -1564.5,686.7 634,1009.9 c 233.9,372.5 705.4,517.5 1108.2,340.7 l 600.8,-263.7 -778.5,-1773.6"
         style="fill:#e69d43;fill-opacity:1;fill-rule:nonzero;stroke:none"
         id="path520" /><path
         d="m 12506,4214.4 c 0,9.8 -0.5,19.5 -1.4,29.1 l 1264.4,212.1 -6.7,39.6 -1264.4,-212.1 c -15.4,64.8 -52,121.3 -102.1,161.8 l 767.3,1096.3 -32.9,23 -736.2,-1051.9 397,1191.3 -38,12.7 -412.1,-1236.3 c -33.8,16.7 -71.3,27.1 -110.9,29.8 v 1320.6 h -40.1 V 4509.8 c -23,-1.6 -45.2,-5.7 -66.4,-12.2 l -409.9,1142.1 -37.8,-13.5 390.1,-1086.9 -784.3,902.8 -30.3,-26.4 817.4,-941 c -42.7,-23.2 -79,-56.7 -105.8,-97.1 l -46.2,8 -1143,579.4 -18.1,-35.8 1026.7,-520.5 -1144.7,196.9 -6.8,-39.6 1273.1,-218.9 33.4,-17 c -15.1,-35.5 -23.4,-74.6 -23.4,-115.7 0,-7.9 0.4,-15.7 1,-23.5 l -1263.6,-187.5 5.9,-39.7 1263.5,187.5 c 2.6,-11.9 5.9,-23.6 9.9,-34.9 l -1153.8,-495.7 15.8,-36.9 1153.9,495.7 c 0.2,-0.4 0.4,-0.8 0.6,-1.2 l -905.6,-913.5 28.5,-28.3 898.7,906.5 c 18.2,-25.7 40.5,-48.3 65.8,-67 l -664.5,-1045.4 33.9,-21.6 664.5,1045.4 c 5.8,-3.2 11.8,-6.1 17.9,-8.9 -166.1,-437.1 -470.1,-1237.9 -477.5,-1260.2 l 38.1,-12.7 c 6.5,19.7 274.3,725.4 476.9,1258.6 27.2,-8.3 56.2,-12.8 86.1,-12.8 5,0 9.9,0.2 14.7,0.4 l -104.9,-1268.3 40,-3.4 105.6,1276.6 c 12.8,2.4 25.2,5.6 37.3,9.6 208.9,-513.6 483.2,-1189 490.5,-1210.6 l 38.1,12.7 c -7.5,22.5 -318.9,788.9 -491.4,1213 3.8,1.8 7.5,3.7 11.1,5.7 l 705.2,-1115.3 34,21.5 -705.3,1115.3 c 28.1,20.6 52.4,46 71.7,75.1 l 1046.8,-725.9 22.9,33 -1049.6,727.8 c 18.8,39 29.4,82.7 29.4,128.9"
         style="fill:#2c3a64;fill-opacity:1;fill-rule:nonzero;stroke:none"
         id="path522" /><path
         d="m 12209.9,5709.9 c -824.6,0 -1495.4,-670.9 -1495.4,-1495.5 0,-824.6 670.8,-1495.5 1495.4,-1495.5 266.5,0 528.1,71 756.5,205.2 221.8,130.3 407.5,316.7 536.9,539.1 132.2,227.1 202.1,486.9 202.1,751.2 0,824.6 -670.8,1495.5 -1495.5,1495.5 z m 0,-3231.8 c -957.4,0 -1736.3,778.9 -1736.3,1736.3 0,957.5 778.9,1736.4 1736.3,1736.4 957.5,0 1736.4,-778.9 1736.4,-1736.4 0,-306.9 -81.2,-608.6 -234.8,-872.4 -150.2,-258 -365.7,-474.4 -623.1,-625.6 -265.3,-155.9 -569.1,-238.3 -878.5,-238.3"
         style="fill:#2c3a64;fill-opacity:1;fill-rule:nonzero;stroke:none"
         id="path524" /><path
         d="m 12223.2,5671.8 c -809.2,0 -1467.6,-658.4 -1467.6,-1467.6 0,-809.3 658.4,-1467.7 1467.6,-1467.7 809.3,0 1467.7,658.4 1467.7,1467.7 0,809.2 -658.4,1467.6 -1467.7,1467.6 z m 0,-2997.1 c -843.3,0 -1529.4,686.1 -1529.4,1529.5 0,843.3 686.1,1529.4 1529.4,1529.4 843.4,0 1529.5,-686.1 1529.5,-1529.4 0,-843.4 -686.1,-1529.5 -1529.5,-1529.5"
         style="fill:#415da5;fill-opacity:1;fill-rule:nonzero;stroke:none"
         id="path526" /><path
         d="m 18066.2,4214.4 c 0,9.8 -0.6,19.5 -1.5,29.1 l 1264.4,212.1 -6.6,39.6 -1264.5,-212.1 c -15.3,64.8 -52,121.3 -102.1,161.8 l 767.4,1096.3 -32.9,23 -736.3,-1051.9 397.1,1191.3 -38.1,12.7 L 17901,4480 c -33.8,16.7 -71.3,27.1 -110.9,29.8 V 5830.4 H 17750 V 4509.8 c -23,-1.6 -45.2,-5.7 -66.4,-12.2 l -409.9,1142.1 -37.8,-13.5 390.1,-1086.9 -784.2,902.8 -30.3,-26.4 817.4,-941 c -42.8,-23.2 -79.1,-56.7 -105.9,-97.1 l -46.2,8 -1143,579.4 -18.1,-35.8 1026.7,-520.5 -1144.7,196.9 -6.8,-39.6 1273.1,-218.9 33.5,-17 c -15.2,-35.5 -23.5,-74.6 -23.5,-115.7 0,-7.9 0.4,-15.7 1,-23.5 l -1263.6,-187.5 5.9,-39.7 1263.5,187.5 c 2.6,-11.9 5.9,-23.6 9.9,-34.9 l -1153.8,-495.7 15.9,-36.9 1153.8,495.7 c 0.2,-0.4 0.4,-0.8 0.6,-1.2 l -905.6,-913.5 28.5,-28.3 898.7,906.5 c 18.3,-25.7 40.5,-48.3 65.9,-67 l -664.6,-1045.4 33.9,-21.6 664.5,1045.4 c 5.8,-3.2 11.8,-6.1 17.9,-8.9 -166,-437.1 -470.1,-1237.9 -477.5,-1260.2 l 38.1,-12.7 c 6.6,19.7 274.3,725.4 476.9,1258.6 27.3,-8.3 56.2,-12.8 86.2,-12.8 4.9,0 9.8,0.2 14.7,0.4 l -105,-1268.3 40,-3.4 105.6,1276.6 c 12.8,2.4 25.3,5.6 37.4,9.6 208.8,-513.6 483.1,-1189 490.4,-1210.6 l 38.1,12.7 c -7.5,22.5 -318.9,788.9 -491.3,1213 3.7,1.8 7.4,3.7 11,5.7 l 705.3,-1115.3 33.9,21.5 -705.3,1115.3 c 28.1,20.6 52.4,46 71.8,75.1 l 1046.7,-725.9 22.9,33 -1049.6,727.8 c 18.8,39 29.5,82.7 29.5,128.9"
         style="fill:#2c3a64;fill-opacity:1;fill-rule:nonzero;stroke:none"
         id="path528" /><path
         d="m 17770.1,5709.9 c -824.7,0 -1495.5,-670.9 -1495.5,-1495.5 0,-824.6 670.8,-1495.5 1495.5,-1495.5 266.5,0 528,71 756.4,205.2 221.9,130.3 407.5,316.7 537,539.1 132.2,227.1 202,486.9 202,751.2 0,824.6 -670.8,1495.5 -1495.4,1495.5 z m 0,-3231.8 c -957.5,0 -1736.4,778.9 -1736.4,1736.3 0,957.5 778.9,1736.4 1736.4,1736.4 957.4,0 1736.3,-778.9 1736.3,-1736.4 0,-306.9 -81.2,-608.6 -234.8,-872.4 -150.2,-258 -365.6,-474.4 -623.1,-625.6 -265.3,-155.9 -569.1,-238.3 -878.4,-238.3"
         style="fill:#2c3a64;fill-opacity:1;fill-rule:nonzero;stroke:none"
         id="path530" /><path
         d="m 17783.4,5671.8 c -809.3,0 -1467.7,-658.4 -1467.7,-1467.6 0,-809.3 658.4,-1467.7 1467.7,-1467.7 809.2,0 1467.6,658.4 1467.6,1467.7 0,809.2 -658.4,1467.6 -1467.6,1467.6 z m 0,-2997.1 c -843.4,0 -1529.5,686.1 -1529.5,1529.5 0,843.3 686.1,1529.4 1529.5,1529.4 843.3,0 1529.4,-686.1 1529.4,-1529.4 0,-843.4 -686.1,-1529.5 -1529.4,-1529.5"
         style="fill:#415da5;fill-opacity:1;fill-rule:nonzero;stroke:none"
         id="path532" /><path
         d="m 14268.3,4414.2 c 97.4,70.6 138.8,226.4 138.8,226.4 l -305.2,-89 c 0,0 69,-208.1 166.4,-137.4"
         style="fill:#ce8e55;fill-opacity:1;fill-rule:nonzero;stroke:none"
         id="path534" /><path
         d="m 15031.3,4197.5 c -9.1,23.8 -29,41.9 -53.6,49 -60.7,17.5 -180.3,33.2 -289.8,132.3 -61.6,55.7 -297.5,204.8 -297.5,204.8 l -1.3,0.2 c -5.2,0 -29.8,-7.6 -137.1,-98.2 -55.5,-46.8 -150.1,66 -150.1,66 0,0 -17.7,-14.7 -31,-42 -10.6,-21.6 -18.4,-51.3 -12.3,-87.9 8.6,-51.5 -19,-147.3 -41,-212.1 -13.3,-39.3 -24.5,-67.1 -24.5,-67.1 0,0 -6.5,-32.3 109.4,-46.8 h 134.7 c 45.1,7.1 78.4,20.1 124.7,26.2 70.2,9.2 102.6,-19.6 109,-26.2 0.9,-0.9 1.2,-1.4 1.2,-1.4 h 572.1 c 14.4,20.6 0.6,68.2 -12.9,103.2"
         style="fill:#e37970;fill-opacity:1;fill-rule:nonzero;stroke:none"
         id="path536" /><path
         d="m 13525.7,7228.8 c 212,-406.8 1111.1,-948.8 1068.9,-998.2 -299.5,-350.7 -492.7,-1679 -492.7,-1679 0,0 60.7,-34.3 116.6,-35.9 94.5,-2.8 191,29.9 191,29.9 372.5,759.7 959.3,1590 908.2,1772.6 -130.2,465.1 -1117.6,1709.3 -1117.6,1709.3 l -883.9,195.5 -267.8,9 c 0,0 187.7,-447.5 477.3,-1003.2"
         style="fill:#2c3a64;fill-opacity:1;fill-rule:nonzero;stroke:none"
         id="path538" /><path
         d="m 14442.4,3946 -1020.4,3191.7 172.1,55.1 1020.4,-3191.7 -172.1,-55.1"
         style="fill:#acd29a;fill-opacity:1;fill-rule:nonzero;stroke:none"
         id="path540" /><path
         d="m 16397.2,7130.2 17.7,36.3 -31.9,-21.6 -0.3,0.3 -0.5,-0.8 -4183.1,-2828.2 c -83.8,-56.7 -49.9,-187.2 50.8,-195.9 l 2106.8,-183.2 15.6,180 -1900.6,165.2 3537.9,2265.1 -1480.1,-2371 151.8,-97.9 1917.2,2843.4 -201.3,208.3"
         style="fill:#82b378;fill-opacity:1;fill-rule:nonzero;stroke:none"
         id="path542" /><path
         d="m 17662.4,4260.7 -1041.3,2242.1 138.3,55.3 c 89.8,36 191.8,-7.9 227.6,-97.8 l 846,-2126.2 c 18.8,-47.4 -4.1,-101.1 -51.3,-120.3 v 0 c -45.9,-18.8 -98.4,1.9 -119.3,46.9"
         style="fill:#415da5;fill-opacity:1;fill-rule:nonzero;stroke:none"
         id="path544" /><path
         d="m 16621.1,6502.8 c -149.4,387.6 -398.6,996.4 -394.7,990.4 l 150.4,100.2 c 7.3,-11.1 12.2,-18.4 403.9,-1034.7 l -159.6,-55.9"
         style="fill:#82b378;fill-opacity:1;fill-rule:nonzero;stroke:none"
         id="path546" /><path
         d="m 16611.1,7708.1 c -67.4,0 -124.6,-43 -146.3,-102.9 l -427.9,24.4 c -24.3,54.1 -78.6,91.9 -141.8,91.9 -85.9,0 -155.6,-69.7 -155.6,-155.6 0,-85.9 69.7,-155.6 155.6,-155.6 40,0 76.4,15.2 103.9,40 l 530.8,-30.3 c 23.7,-14.5 51.4,-23.1 81.3,-23.1 85.9,0 155.5,69.7 155.5,155.6 0,85.9 -69.6,155.6 -155.5,155.6"
         style="fill:#415da5;fill-opacity:1;fill-rule:nonzero;stroke:none"
         id="path548" /><path
         d="m 15475.2,3679.1 h -391.4 c -46,0 -83.6,-37.6 -83.6,-83.6 v 0 c 0,-46 37.6,-83.6 83.6,-83.6 h 391.4 c 46,0 83.7,37.6 83.7,83.6 v 0 c 0,46 -37.7,83.6 -83.7,83.6"
         style="fill:#415da5;fill-opacity:1;fill-rule:nonzero;stroke:none"
         id="path550" /><path
         d="m 15283.4,3613.7 -792.9,361.3 29.1,64 792.9,-361.4 -29.1,-63.9"
         style="fill:#415da5;fill-opacity:1;fill-rule:nonzero;stroke:none"
         id="path552" /><path
         d="m 13625,5996 c -25.5,-8.9 -53.6,-6 -76.7,8 v 0 c -812.4,490.8 -1936.4,306.3 -2261.6,238.1 l -0.5,-0.1 c -17.9,-3.8 -34.8,9.9 -34.8,28.2 v 63.5 c 0,48.6 35.5,89.8 83.6,97 175.9,26.1 586.8,82.4 816.4,83.4 6.2,0 12.4,0 18.6,0 514.2,0 958.3,-92 1323.3,-273.9 74.5,-37.2 160.9,-42.4 239.4,-14.8 l 100.2,35.2 c 57.2,20.1 119.8,-10 139.9,-67.2 v 0 c 13,-36.9 -6.4,-77.4 -43.4,-90.4 L 13625,5996"
         style="fill:#82b378;fill-opacity:1;fill-rule:nonzero;stroke:none"
         id="path554" /><path
         d="m 12869.9,7233 c 0,0 -32.7,148 60.2,158.1 92.8,10 431.6,-62.8 521.9,-52.7 90.3,10 562,87.8 644.9,7.5 82.8,-80.3 47.6,-150.5 -118,-165.6 -165.6,-15.1 -386.4,-42.7 -449.1,-95.3 -62.8,-52.7 -516.9,-208.3 -659.9,148"
         style="fill:#415da5;fill-opacity:1;fill-rule:nonzero;stroke:none"
         id="path556" /><path
         d="m 14076.8,3973.5 c 0,249.5 202.2,451.7 451.6,451.7 249.5,0 451.7,-202.2 451.7,-451.7 0,-249.4 -202.2,-451.6 -451.7,-451.6 -249.4,0 -451.6,202.2 -451.6,451.6"
         style="fill:#415da5;fill-opacity:1;fill-rule:nonzero;stroke:none"
         id="path558" /><path
         d="m 15276.8,4111 c 0,0 45.8,-164.3 140.7,-152.2 95,12.2 146.5,184.5 146.5,184.5 l -287.2,-32.3"
         style="fill:#ce8e55;fill-opacity:1;fill-rule:nonzero;stroke:none"
         id="path560" /><path
         d="m 15277.4,3655.1 h 134.7 c 45.1,7.1 78.4,20.1 124.7,26.2 70.2,9.2 102.6,-19.6 109,-26.2 0.9,-0.9 1.3,-1.4 1.3,-1.4 h 572 c 14.4,20.6 0.6,68.2 -12.9,103.2 -9.1,23.8 -29,41.9 -53.6,49 -60.6,17.5 -180.3,33.2 -289.8,132.3 -61.6,55.7 -297.5,204.8 -297.5,204.8 l -1.3,0.3 c -5.2,-0.1 -29.8,-7.7 -137.1,-98.3 -55.5,-46.8 -150.1,66 -150.1,66 0,0 -17.7,-14.7 -31,-42 -10.6,-21.6 -18.4,-51.3 -12.3,-87.8 8.6,-51.6 -19,-147.4 -41,-212.2 -13.3,-39.2 -24.5,-67.1 -24.5,-67.1 0,0 -6.5,-32.3 109.4,-46.8"
         style="fill:#e37970;fill-opacity:1;fill-rule:nonzero;stroke:none"
         id="path562" /><path
         d="m 13090.7,8445.2 c 0,0 -353.9,-768.3 74.6,-1119 428.5,-350.6 1675.2,-847.3 1694.7,-925.2 19.4,-77.9 105.2,-1355 416.8,-2290 0,0 107.3,-42.8 287.2,32.3 100.7,42 235.8,2467.1 60.5,2700.8 -175.3,233.8 -1152.3,902 -1152.3,902 l -1381.5,699.1"
         style="fill:#35488b;fill-opacity:1;fill-rule:nonzero;stroke:none"
         id="path564" /><path
         d="m 14228.9,11028.5 c 0,0 431.5,-413.2 756.3,-413.4 0,0 -43.3,115.8 -148,225.7 20.8,40.7 39.1,78.1 54.7,111.7 56.4,121.4 79.8,193.3 79.8,193.3 l -233.3,351.6 -52.3,78.8 c -16.9,-60.5 -38.2,-114.9 -62.3,-163.5 -1.9,-3.9 -3.7,-7.7 -5.7,-11.4 -147,-287.8 -389.2,-372.8 -389.2,-372.8"
         style="fill:#ce8e55;fill-opacity:1;fill-rule:nonzero;stroke:none"
         id="path566" /><path
         d="m 16334.7,7868.7 c 0,0 -617.4,790.5 -672,860.2 -54.6,69.8 -601.1,1247.4 -601.1,1247.4 l -832.4,72.2 c 0,0 896.4,-1454.7 1038.1,-1628.8 234.2,-287.6 898.2,-640.7 898.2,-640.7 -12.8,-75.8 47.8,-151 142.6,-183.6 94.9,-32.7 63.5,-33.3 129.8,-58 66.4,-24.7 90.4,77.1 90.4,77.1 38.9,245.4 -193.6,254.2 -193.6,254.2"
         style="fill:#c0783d;fill-opacity:1;fill-rule:nonzero;stroke:none"
         id="path568" /><path
         d="m 13090.7,8445.2 c -11.8,-32 43.9,-89 68.9,-111.3 110.9,-98.8 219.8,-185.6 336.4,-259.5 81.2,-51.8 166.2,-97.3 258.1,-136.3 264.8,-114.7 607.6,-155.3 718.1,-192 11.8,-3.7 23.6,-2.5 34.8,2 9.3,3.6 120.9,336 248.4,759.4 5.1,16.2 10.8,34.1 14.5,50.8 l 1.9,5.9 c 50.4,164.6 99.2,339.6 146,513.4 103.6,383.8 189.7,758.5 203.4,977.1 16.2,256.8 -70.2,456.7 -158,611.3 l -73.5,122.5 c -108.6,11.7 -214.6,51.7 -305.8,139.1 -98.6,94.6 -206.2,197 -231.5,188.8 -299.9,-104.5 -590,-601.8 -780.4,-1211.2 -5.9,-19.2 -11.9,-38.6 -17.8,-58.1 -18.7,-63.1 -36.6,-127.5 -53.2,-192.5 -115.7,-457.5 -266,-838.3 -353.1,-1059.8 -25,-63.7 -44.9,-114.2 -57.2,-149.6"
         style="fill:#acd29a;fill-opacity:1;fill-rule:nonzero;stroke:none"
         id="path570" /><path
         d="m 13090.7,8445.2 c -11.8,-32 43.9,-89 68.9,-111.3 110.9,-98.8 219.8,-185.6 336.4,-259.5 713.6,1028.5 640.7,2267.3 640.7,2267.3 l -582.5,-494.6 c -18.7,-63.1 -36.6,-127.5 -53.2,-192.5 -115.7,-457.5 -266,-838.3 -353.1,-1059.8 -25,-63.7 -44.9,-114.2 -57.2,-149.6"
         style="fill:#82b378;fill-opacity:1;fill-rule:nonzero;stroke:none"
         id="path572" /><path
         d="m 14617.1,11406.7 c 0,0 0.3,-1.9 1,-5.4 8.6,-41.7 71.4,-312.8 273.8,-448.8 56.4,121.4 79.8,193.3 79.8,193.3 l -233.3,351.6 c -56.6,-35.4 -98.8,-70.9 -114.6,-84.7 -4.4,-3.9 -6.7,-6 -6.7,-6"
         style="fill:#c0783d;fill-opacity:1;fill-rule:nonzero;stroke:none"
         id="path574" /><path
         d="m 15111.1,11136.5 c 0,0 -518.5,-16.3 -523.6,306.8 -5.2,323 -75.6,538.4 255.2,562.5 330.8,24 397.1,-98.2 425.1,-205.6 27.9,-107.4 -22,-651.2 -156.7,-663.7"
         style="fill:#ce8e55;fill-opacity:1;fill-rule:nonzero;stroke:none"
         id="path576" /><path
         d="m 14587.9,11421 c 0,0 67.1,422.8 538.3,428.9 322.8,4.1 166.6,294.3 136,341.1 0,0 -248.1,-13.8 -503.1,-34.9 -535,-44.4 -217.7,-664.7 -171.2,-735.1"
         style="fill:#2c3a64;fill-opacity:1;fill-rule:nonzero;stroke:none"
         id="path578" /><path
         d="m 15880.3,7836.6 c 0,0 -617.5,790.5 -672.1,860.3 -54.5,69.8 -601.1,1247.3 -601.1,1247.3 l -392.4,83.9 -356.2,-147.1 c 0,0 812.7,-1319.3 954.4,-1493.3 234.2,-287.6 898.1,-640.7 898.1,-640.7 -12.8,-75.9 47.8,-151 142.6,-183.7 94.9,-32.7 63.5,-33.2 129.9,-57.9 66.3,-24.7 90.4,77 90.4,77 38.9,245.4 -193.6,254.2 -193.6,254.2"
         style="fill:#ce8e55;fill-opacity:1;fill-rule:nonzero;stroke:none"
         id="path580" /><path
         d="m 14670.4,9943.6 c 0,0 -563.7,83.2 -835.2,-92.3 0,0 -61.6,352.6 -13.2,649.7 26.5,163.2 182.7,273.9 345.4,244.1 109.1,-20 223.3,-62.1 276.4,-149.1 117.2,-192.3 226.6,-652.4 226.6,-652.4"
         style="fill:#acd29a;fill-opacity:1;fill-rule:nonzero;stroke:none"
         id="path582" /><path
         d="m 14335.2,11590.6 1035,262.5 c 0,0 -20,477.5 -395,512.5 -375,35 -790,-447.5 -640,-775"
         style="fill:#acd29a;fill-opacity:1;fill-rule:nonzero;stroke:none"
         id="path584" /><path
         d="m 15093.8,11916 c -28.9,-45.3 -66.9,-72.9 -84.7,-61.5 -17.9,11.4 -8.9,57.4 20.1,102.8 29,45.4 67,72.9 84.8,61.5 17.8,-11.4 8.8,-57.4 -20.2,-102.8"
         style="fill:#82b378;fill-opacity:1;fill-rule:nonzero;stroke:none"
         id="path586" /><path
         d="m 14910.5,11873.6 c -29,-45.4 -66.9,-72.9 -84.8,-61.5 -17.8,11.3 -8.8,57.4 20.2,102.8 29,45.3 66.9,72.9 84.8,61.5 17.8,-11.4 8.8,-57.4 -20.2,-102.8"
         style="fill:#82b378;fill-opacity:1;fill-rule:nonzero;stroke:none"
         id="path588" /><path
         d="m 14725.4,11834.4 c -28.9,-45.4 -66.9,-72.9 -84.8,-61.5 -17.8,11.3 -8.8,57.4 20.2,102.8 29,45.3 66.9,72.9 84.8,61.5 17.8,-11.4 8.8,-57.4 -20.2,-102.8"
         style="fill:#82b378;fill-opacity:1;fill-rule:nonzero;stroke:none"
         id="path590" /><path
         d="m 14529.3,11777.4 c -29,-45.4 -66.9,-72.9 -84.8,-61.5 -17.8,11.4 -8.8,57.4 20.2,102.8 28.9,45.4 66.9,72.9 84.7,61.5 17.9,-11.4 8.9,-57.4 -20.1,-102.8"
         style="fill:#82b378;fill-opacity:1;fill-rule:nonzero;stroke:none"
         id="path592" /><path
         d="m 14889.5,12210.6 c 329.4,25 409,-375.7 409,-375.7 v 0 l 71.7,18.2 c 0,0 -20,477.5 -395,512.5 -375,35 -790,-447.5 -640,-775 -70,355 225,595 554.3,620"
         style="fill:#82b378;fill-opacity:1;fill-rule:nonzero;stroke:none"
         id="path594" /><path
         d="m 14081.3,10981.2 -63.1,-140.6 c 0,0 704.8,-208.6 632.2,-989.3 l 55.6,-119.2 c 0,0 161.4,1050 -624.7,1249.1"
         style="fill:#ebba56;fill-opacity:1;fill-rule:nonzero;stroke:none"
         id="path596" /><path
         d="m 14300,9171.8 c 0,0 -691.7,-438.3 -1057.9,-333.1 l -66.5,-173.3 c 0,0 707.7,58.2 1155.7,456.7 l -31.3,49.7"
         style="fill:#ebba56;fill-opacity:1;fill-rule:nonzero;stroke:none"
         id="path598" /><path
         d="m 22875,11305.2 c -1052.1,0 -1905.1,852.9 -1905.1,1905.1 0,1052.2 853,1905.1 1905.1,1905.1 1052.2,0 1905.2,-852.9 1905.2,-1905.1 0,-1052.2 -853,-1905.1 -1905.2,-1905.1 z m 0,4470 c -1550.7,0 -2807.8,-1257.1 -2807.8,-2807.9 0,-1550.7 2807.8,-4337.5 2807.8,-4337.5 0,0 2807.9,2786.8 2807.9,4337.5 0,1550.8 -1257.1,2807.9 -2807.9,2807.9"
         style="fill:#e37970;fill-opacity:1;fill-rule:nonzero;stroke:none"
         id="path600" /><path
         d="m 6591.86,6296.3 c -582.58,0 -1054.85,472.2 -1054.85,1054.8 0,582.6 472.27,1054.9 1054.85,1054.9 582.58,0 1054.85,-472.3 1054.85,-1054.9 0,-582.6 -472.27,-1054.8 -1054.85,-1054.8 z m 0,2475 c -858.64,0 -1554.7,-696.1 -1554.7,-1554.7 0,-858.6 1554.7,-2401.7 1554.7,-2401.7 0,0 1554.71,1543.1 1554.71,2401.7 0,858.6 -696.07,1554.7 -1554.71,1554.7"
         style="fill:#466aa5;fill-opacity:1;fill-rule:nonzero;stroke:none"
         id="path602" /><path
         d="M 27558,2470 H 2422.02 c -11.51,0 -20.93,9.4 -20.93,20.9 v 2.1 c 0,11.6 9.42,21 20.93,21 H 27558 c 11.5,0 20.9,-9.4 20.9,-21 v -2.1 c 0,-11.5 -9.4,-20.9 -20.9,-20.9"
         style="fill:#283250;fill-opacity:1;fill-rule:nonzero;stroke:none"
         id="path604" /></g></g></svg>
